<?xml version="1.0" encoding="UTF-8" standalone="no"?><!DOCTYPE svg PUBLIC "-//W3C//DTD SVG 1.1//EN" "http://www.w3.org/Graphics/SVG/1.1/DTD/svg11.dtd"><svg width="100%" height="100%" viewBox="0 0 67 67" version="1.1" xmlns="http://www.w3.org/2000/svg" xmlns:xlink="http://www.w3.org/1999/xlink" xml:space="preserve" xmlns:serif="http://www.serif.com/" style="fill-rule:evenodd;clip-rule:evenodd;stroke-linejoin:round;stroke-miterlimit:2;"><g><path d="M0,28.75c0,-19.512 16.952,-28.479 33.552,-28.52c16.6,-0.04 33.113,9.906 33.113,28.355c0,18.449 0.002,28.811 0.002,28.811l-1.721,1.399l-3.849,0.018l-1.205,-1.52c-0,-0 -0.199,-13.639 -0.199,-28.792c0,-15.153 -11.44,-21.462 -26.414,-21.475c-14.975,-0.014 -26.526,6.211 -26.526,21.529l0,29.147l-1.622,1.388l-3.185,0l-1.946,-1.388l0,-28.952Z"/><path d="M41.345,40.33c2.209,-0 1.624,-0.104 6.31,-0.104c4.687,0 8.308,3.549 8.308,7.957l0,9.758c0,4.858 -3.743,8.495 -8.331,8.495c-4.589,0 -4.03,-0.055 -6.316,-0.027c-2.285,0.027 -4.234,-1.846 -4.234,-4.301c-0,-2.455 0.072,-15.462 0.072,-17.836c-0,-2.374 1.982,-3.942 4.191,-3.942l0,-0Zm2.134,6.416l0.044,13.356c-0,0 3.206,0 4.142,-0.017c0.937,-0.018 2.097,-1.059 2.097,-2.145c-0,-1.087 0.217,-7.681 0.217,-8.785c0,-1.104 -0.977,-2.409 -2.244,-2.452c-1.267,-0.044 -4.256,0.043 -4.256,0.043m-24.308,-6.437c4.594,-0.02 4.148,-0 6.278,-0c2.13,-0 4.216,1.794 4.249,4.018c0.034,2.223 0,15.864 -0.033,18.007c-0.033,2.142 -1.746,4.045 -4.216,4.045c-2.47,-0 -2.008,-0.081 -6.364,-0.04c-4.356,0.04 -8.25,-3.901 -8.25,-8.381c-0,-4.48 0.27,-5.424 0.135,-9.728c-0.135,-4.303 3.606,-7.902 8.201,-7.922l-0,0.001Zm-2.15,8.642c0,1.149 0.038,7.794 0.038,9.05c0,1.255 0.925,2.012 2.202,2.012c1.277,0 4.123,-0.018 4.123,-0.018l0,-13.36c0,-0 -2.953,-0.051 -4.077,-0.051c-1.124,-0 -2.286,1.219 -2.286,2.367l0,0Z"/></g></svg>